Patient4_TMGait_0pt4_03_left_34_EMG.mot
version=1
nRows=13
nColumns=33
inDegrees=no
endheader
time	1LAddLong	2LGlutMax	3LGlutMed	4LIliopsoas	5LSemiMemb	6LBicFemLong	7LRecFem	8LVastMed	9LVastLat	10LGasMed	11LTibAnt	12lTibPost	13LPeroneusLong	14LSol	15LExtDigLong	16LFlexDigLong	17RAddLong	18RGlutMax	19RGlutMed	20RIliopsoas	21RSemiMemb	22RBicFemLong	23RRecFem	24RVastMed	25RVastLat	26RGasMed	27RTibAnt	28RTibPost	29RPeroneusLong	30RSol	31RExtDigLong	32RFlexDigLong
45.41	-0.007935	0.11047	-0.07309	-0.002289	0.009003	0.013428	-0.32303	-0.002441	-0.14297	0.024414	-0.012054	0.065613	0.005951	0.080261	0.016174	0.019073	0.03067	0.21912	-0.029144	-0.014191	-0.015717	0.075531	0.26489	-0.016632	0.028381	-0.003357	0.001221	-0.010681	-0.002594	-0.026855	-0.012817	-0.020447
45.411	0.009155	0.11917	-0.13901	-0.002441	0.017242	-0.016785	-0.40237	-0.007477	0.011597	0.016785	0.002594	0.051422	-0.000458	0.087891	0.013275	0.43747	0.029297	0.22232	-0.044098	-0.011292	-0.012207	0.04715	0.26733	-0.036926	0.040131	-0.00061	-0.009766	-0.00885	-0.044708	-0.15457	-0.015411	-0.015106
45.412	-0.000916	0.12634	-0.15533	0.014648	-0.035858	0.041199	-0.42404	0.00412	0.074463	0.012817	0.005341	0.033875	0.004425	0.056763	0.028992	-0.44739	0.027618	0.23621	-0.059662	-0.079041	0.018311	0.021667	0.23621	0.00885	0.022888	0.009155	-0.002747	-0.013123	-0.058441	-0.30151	-0.014496	-0.015564
45.413	-0.002594	0.14832	-0.18356	0.011749	-0.033569	0.05722	-0.39825	0.018463	0.029907	-0.010681	0.008087	0.028076	0.016785	0.14923	0.021515	0.050354	0.032959	0.2272	0.007782	-0.093384	0.042572	-0.068512	0.25787	0.030365	0.02182	0.015564	0.00824	-0.014801	-0.090637	-0.25635	-0.020447	-0.006561
45.414	-0.001526	0.13763	-0.15793	-0.016174	-0.007782	0.014496	-0.38834	0.011597	0.037994	0.019379	0.001984	0.023651	-0.007782	0.15198	0.018921	0.048981	0.03891	0.15701	0.019836	-0.064392	0.051727	-0.055084	0.24216	0.027008	0.029297	0.012054	0.011749	-0.020752	-0.049286	-0.44479	-0.014343	-0.010834
45.415	0.01236	0.053864	-0.17334	-0.016022	0.033875	-0.048523	-0.32455	-0.00351	0.048828	0.033569	0.012817	0.006561	-0.006409	0.14435	0.020752	-0.003052	-0.005646	0.17212	0.035095	0.007019	0.033875	-0.019684	0.26169	-0.003052	0.021973	0.003357	0.021057	-0.016327	0.008087	-0.60257	-0.016174	-0.011902
45.416	0.017395	0.077972	-0.10788	-0.011597	0.042572	-0.12314	-0.3183	-0.023651	0.12848	0.049744	0.016937	0.004272	-0.046997	0.13351	0.020447	-0.019836	0	0.14572	0.034027	0.023804	0.015106	-0.001068	0.28671	0.002747	0.035248	-0.000305	0.014038	-0.012665	0.00946	-0.41336	-0.017548	-0.007782
45.417	0.014648	0.13199	0.11017	-0.021667	0.027008	-0.078125	-0.32913	-0.02121	0.22568	0.024261	0.016022	-0.008698	-0.057526	0.075378	0.024414	-0.021362	-0.00824	0.12161	-0.007019	0.044861	-0.012512	-0.000763	0.30258	-0.037079	0.030823	0.002136	0.005341	-0.012665	-0.000763	-0.1442	-0.014496	-0.005341
45.418	0.004883	0.16312	0.040894	0.001831	-0.018921	-0.00885	-0.31586	-0.03479	0.18768	0.013275	0.006714	-0.01358	-0.039368	0.10483	0.024414	-0.038452	-0.004883	0.061188	-0.086823	0.081024	-0.020142	0.016479	0.30823	-0.027466	0.023651	0.001068	-0.010681	-0.011749	0.048218	0.075378	-0.008545	-0.00885
45.419	0.00061	0.25772	0.007935	0.008698	-0.050659	0.036011	-0.28519	-0.029144	0.044708	0.014648	0.019073	-0.009918	-0.15213	0.10712	0.013428	-0.032959	-0.008392	-0.01236	-0.18692	0.10925	-0.028229	0.020142	0.27969	-0.043793	0.023499	-0.007324	-0.002899	-0.012512	-0.000458	0.075378	-0.013275	-0.015717
45.42	0.003967	0.298	0.045471	-0.003967	-0.079041	0.049286	-0.26871	-0.025635	-0.00061	0.004425	0.011902	-0.01358	0.20187	0.071411	0.003052	-0.037079	-0.011749	-0.023804	-0.25513	0.077209	-0.041046	0.010834	0.25833	-0.035095	0.019073	-0.009766	0.033875	-0.007172	-0.059814	0.024872	-0.015869	-0.015259
45.421	0.008392	0.27817	0.035706	-0.002136	-0.037689	0.054016	-0.26749	-0.019684	0.066681	0.014801	0.007629	-0.014648	0.16876	0.031128	0.014648	-0.028992	-0.001678	-0.071259	-0.28717	0.065613	-0.045624	0.015106	0.30853	-0.052032	0.011902	-0.003052	0.036163	-0.004883	-0.064087	-0.16388	-0.01709	-0.007324
45.422	0.02182	0.24704	0.010071	0.014496	-0.002441	-0.023804	-0.27268	-0.022888	0.12177	0.00061	-0.007324	-0.029449	0.12528	0.062561	0.014343	-0.040741	0.015717	-0.08667	-0.32761	0.095825	-0.047302	0.012665	0.27039	-0.05661	0.010376	-0.000916	0.005035	-0.007935	0.007324	-0.068665	-0.010071	-0.005188
